# xmcd
#
# Track frame offsets:
#	150
#	15402
#	32419
#	47737
#	62811
#	80399
#	94298
#	108273
#	123532
#	139867
#	155143
#	172631
#	187009
#	201645
#	218252
#	233180
#	250355
#	251289
#	252041
#	252740
#	253474
#	254279
#	255017
#	255752
#	256495
#	257340
#	258311
#	259081
#	259813
#	260545
#	261385
#	262179
#	263000
#	263800
#
# Disc length: 3526 seconds
#
# Revision: 1
# Processed by: cddbd v1.5.2PL0 Copyright (c) Steve Scherf et al.
# Submitted via: audiograbber 1.83.01
#
DISCID=eb0dc422
DTITLE=Various Artist - CDX Volume 657 (January 29, 2018)
DYEAR=2018
DGENRE=Country
TTITLE0=LOCASH - Don't Get Better Than That
TTITLE1=Luke Bryan - Most People Are Good
TTITLE2=Josh Gracin - Nothin' Like Us
TTITLE3=Dan and Shay - Tequila
TTITLE4=Alan Jackson - The Older I Get
TTITLE5=Dierks Bentley - Woman, Amen
TTITLE6=Denny Strickland - California Dreamin
TTITLE7=Ronald Dorsey - Dis Here Guitar
TTITLE8=Octobe Rose - Heartbreak Song
TTITLE9=Preston Ary - Hide And Seek
TTITLE10=The Frontmen - If It Wasn't For The Radio
TTITLE11=James House - Leading Me Home
TTITLE12=Kyle Daigle - Love the Leavin'
TTITLE13=Lee Gant - Ruined This Town
TTITLE14=Lynn Easterly - She Won The Loser
TTITLE15=Joe Denim (featuring Rachel Holder) - Together We're A Ten
TTITLE16=Corey Cox - Radio Liner - My New Single
TTITLE17=Corey Cox - Radio Liner - Today's Best Country
TTITLE18=Corey Cox - Radio Liner - Kickin' Country
TTITLE19=Corey Cox - Radio Liner - Hometown Country
TTITLE20=Corey Cox - Radio Liner - Super Country
TTITLE21=Corey Cox - Radio Liner - Today's Hot Country
TTITLE22=Corey Cox - Radio Liner - Best In Today's Country
TTITLE23=Corey Cox - Radio Liner - More of the Country You Love
TTITLE24=Corey Cox - Radio Liner - Howlin' Country
TTITLE25=Gal Friday - Radio Liner - Our New Single
TTITLE26=Gal Friday - Radio Liner - Today's Best Country
TTITLE27=Gal Friday - Radio Liner - Kickin' Country
TTITLE28=Gal Friday - Radio Liner - Hometown Country
TTITLE29=Gal Friday - Radio Liner - Super Country
TTITLE30=Gal Friday - Radio Liner - Today's Hot Country
TTITLE31=Gal Friday - Radio Liner - Best In Today's Country
TTITLE32=Gal Friday - Radio Liner - More of the Country You Love
TTITLE33=Gal Friday - Radio Liner - Howlin' Country
EXTD=
EXTT0=
EXTT1=
EXTT2=
EXTT3=
EXTT4=
EXTT5=
EXTT6=
EXTT7=
EXTT8=
EXTT9=
EXTT10=
EXTT11=
EXTT12=
EXTT13=
EXTT14=
EXTT15=
EXTT16=
EXTT17=
EXTT18=
EXTT19=
EXTT20=
EXTT21=
EXTT22=
EXTT23=
EXTT24=
EXTT25=
EXTT26=
EXTT27=
EXTT28=
EXTT29=
EXTT30=
EXTT31=
EXTT32=
EXTT33=
PLAYORDER=
